{
	"asset":{
		"generator":"Khronos glTF Blender I/O v3.5.30",
		"version":"2.0"
	},
	"scene":0,
	"scenes":[
		{
			"name":"Scene",
			"nodes":[
				0,
				1,
				2,
				3,
				4,
				5
			]
		}
	],
	"nodes":[
		{
			"mesh":0,
			"name":"Helmet"
		},
		{
			"mesh":1,
			"name":"Padding"
		},
		{
			"mesh":2,
			"name":"FaceMask",
			"rotation":[
				-0.004422944039106369,
				0,
				0,
				0.9999902248382568
			]
		},
		{
			"mesh":3,
			"name":"Stripe1"
		},
		{
			"mesh":4,
			"name":"Stripe2"
		},
		{
			"mesh":5,
			"name":"OuterWrap",
			"translation":[
				0.11294573545455933,
				0.06652070581912994,
				0.0001877564936876297
			]
		}
	],
	"materials":[
		{
			"doubleSided":true,
			"name":"Outer_Wrap",
			"pbrMetallicRoughness":{
				"baseColorFactor":[
					0.8000000715255737,
					0.043768420815467834,
					0.017154499888420105,
					1
				],
				"metallicFactor":0.5
			}
		},
		{
			"doubleSided":true,
			"name":"Padding",
			"pbrMetallicRoughness":{
				"baseColorFactor":[
					0,
					0,
					0,
					1
				],
				"metallicFactor":0.5,
				"roughnessFactor":0.7300000190734863
			}
		},
		{
			"doubleSided":true,
			"name":"Stripe1",
			"pbrMetallicRoughness":{
				"baseColorFactor":[
					0.7853677272796631,
					0.7257896661758423,
					0.8000000715255737,
					1
				],
				"metallicFactor":0.5
			}
		},
		{
			"doubleSided":true,
			"name":"Facemask",
			"pbrMetallicRoughness":{
				"baseColorFactor":[
					0,
					0,
					0,
					1
				],
				"metallicFactor":0.5,
				"roughnessFactor":0.37977269291877747
			}
		},
		{
			"doubleSided":true,
			"name":"Stripe2 ",
			"pbrMetallicRoughness":{
				"baseColorFactor":[
					0.0005844090483151376,
					0,
					0.24779510498046875,
					1
				],
				"metallicFactor":0.5
			}
		},
		{
			"alphaCutoff":0.5,
			"alphaMode":"MASK",
			"doubleSided":true,
			"name":"Logo",
			"pbrMetallicRoughness":{
				"baseColorTexture":{
					"index":0
				},
				"metallicFactor":0,
				"roughnessFactor":0.5
			}
		}
	],
	"meshes":[
		{
			"name":"Helmet Padding.001",
			"primitives":[
				{
					"attributes":{
						"POSITION":0,
						"TEXCOORD_0":1,
						"TEXCOORD_1":2,
						"TEXCOORD_2":3,
						"NORMAL":4
					},
					"indices":5,
					"material":0
				}
			]
		},
		{
			"name":"Helmet Padding.002",
			"primitives":[
				{
					"attributes":{
						"POSITION":6,
						"TEXCOORD_0":7,
						"TEXCOORD_1":8,
						"TEXCOORD_2":9,
						"NORMAL":10
					},
					"indices":11,
					"material":1
				},
				{
					"attributes":{
						"POSITION":12,
						"TEXCOORD_0":13,
						"TEXCOORD_1":14,
						"TEXCOORD_2":15,
						"NORMAL":16
					},
					"indices":17,
					"material":2
				}
			]
		},
		{
			"name":"Helmet Padding.003",
			"primitives":[
				{
					"attributes":{
						"POSITION":18,
						"TEXCOORD_0":19,
						"TEXCOORD_1":20,
						"TEXCOORD_2":21,
						"NORMAL":22
					},
					"indices":23,
					"material":3
				}
			]
		},
		{
			"name":"Helmet Padding.010",
			"primitives":[
				{
					"attributes":{
						"POSITION":24,
						"TEXCOORD_0":25,
						"TEXCOORD_1":26,
						"TEXCOORD_2":27,
						"NORMAL":28
					},
					"indices":29,
					"material":2
				}
			]
		},
		{
			"name":"Helmet Padding.011",
			"primitives":[
				{
					"attributes":{
						"POSITION":30,
						"TEXCOORD_0":31,
						"TEXCOORD_1":32,
						"TEXCOORD_2":33,
						"NORMAL":34
					},
					"indices":35,
					"material":4
				}
			]
		},
		{
			"name":"Helmet Padding.013",
			"primitives":[
				{
					"attributes":{
						"POSITION":36,
						"TEXCOORD_0":37,
						"TEXCOORD_1":38,
						"TEXCOORD_2":39,
						"NORMAL":40
					},
					"indices":41,
					"material":5
				}
			]
		}
	],
	"textures":[
		{
			"sampler":0,
			"source":0
		}
	],
	"images":[
		{
			"bufferView":42,
			"mimeType":"image/png",
			"name":"logo-knight"
		}
	],
	"accessors":[
		{
			"bufferView":0,
			"componentType":5126,
			"count":4733,
			"max":[
				0.1064552590250969,
				0.1527460813522339,
				0.12343095242977142
			],
			"min":[
				-0.05666772276163101,
				-0.11974181979894638,
				-0.12327931076288223
			],
			"type":"VEC3"
		},
		{
			"bufferView":1,
			"componentType":5126,
			"count":4733,
			"type":"VEC2"
		},
		{
			"bufferView":2,
			"componentType":5126,
			"count":4733,
			"type":"VEC2"
		},
		{
			"bufferView":3,
			"componentType":5126,
			"count":4733,
			"type":"VEC2"
		},
		{
			"bufferView":4,
			"componentType":5126,
			"count":4733,
			"type":"VEC3"
		},
		{
			"bufferView":5,
			"componentType":5123,
			"count":26940,
			"type":"SCALAR"
		},
		{
			"bufferView":6,
			"componentType":5126,
			"count":2385,
			"max":[
				0.10204226523637772,
				0.15341037511825562,
				0.11381793767213821
			],
			"min":[
				-0.05322904884815216,
				-0.1098632663488388,
				-0.1136707067489624
			],
			"type":"VEC3"
		},
		{
			"bufferView":7,
			"componentType":5126,
			"count":2385,
			"type":"VEC2"
		},
		{
			"bufferView":8,
			"componentType":5126,
			"count":2385,
			"type":"VEC2"
		},
		{
			"bufferView":9,
			"componentType":5126,
			"count":2385,
			"type":"VEC2"
		},
		{
			"bufferView":10,
			"componentType":5126,
			"count":2385,
			"type":"VEC3"
		},
		{
			"bufferView":11,
			"componentType":5123,
			"count":11616,
			"type":"SCALAR"
		},
		{
			"bufferView":12,
			"componentType":5126,
			"count":4164,
			"max":[
				0.1369258463382721,
				0.054765064269304276,
				0.12446501106023788
			],
			"min":[
				-0.0661904588341713,
				-0.11831793189048767,
				-0.12442618608474731
			],
			"type":"VEC3"
		},
		{
			"bufferView":13,
			"componentType":5126,
			"count":4164,
			"type":"VEC2"
		},
		{
			"bufferView":14,
			"componentType":5126,
			"count":4164,
			"type":"VEC2"
		},
		{
			"bufferView":15,
			"componentType":5126,
			"count":4164,
			"type":"VEC2"
		},
		{
			"bufferView":16,
			"componentType":5126,
			"count":4164,
			"type":"VEC3"
		},
		{
			"bufferView":17,
			"componentType":5123,
			"count":24960,
			"type":"SCALAR"
		},
		{
			"bufferView":18,
			"componentType":5126,
			"count":38642,
			"max":[
				0.18735027313232422,
				0.09162501245737076,
				0.12467560917139053
			],
			"min":[
				-0.06099778786301613,
				-0.1452408730983734,
				-0.12426117807626724
			],
			"type":"VEC3"
		},
		{
			"bufferView":19,
			"componentType":5126,
			"count":38642,
			"type":"VEC2"
		},
		{
			"bufferView":20,
			"componentType":5126,
			"count":38642,
			"type":"VEC2"
		},
		{
			"bufferView":21,
			"componentType":5126,
			"count":38642,
			"type":"VEC2"
		},
		{
			"bufferView":22,
			"componentType":5126,
			"count":38642,
			"type":"VEC3"
		},
		{
			"bufferView":23,
			"componentType":5123,
			"count":231174,
			"type":"SCALAR"
		},
		{
			"bufferView":24,
			"componentType":5126,
			"count":155,
			"max":[
				0.11203213036060333,
				0.15413983166217804,
				0.03201870620250702
			],
			"min":[
				-0.05336007848381996,
				0.025243382900953293,
				-0.03280823677778244
			],
			"type":"VEC3"
		},
		{
			"bufferView":25,
			"componentType":5126,
			"count":155,
			"type":"VEC2"
		},
		{
			"bufferView":26,
			"componentType":5126,
			"count":155,
			"type":"VEC2"
		},
		{
			"bufferView":27,
			"componentType":5126,
			"count":155,
			"type":"VEC2"
		},
		{
			"bufferView":28,
			"componentType":5126,
			"count":155,
			"type":"VEC3"
		},
		{
			"bufferView":29,
			"componentType":5123,
			"count":720,
			"type":"SCALAR"
		},
		{
			"bufferView":30,
			"componentType":5126,
			"count":132,
			"max":[
				0.10964233428239822,
				0.15237444639205933,
				0.044556405395269394
			],
			"min":[
				-0.053612373769283295,
				0.025683825835585594,
				-0.04533817619085312
			],
			"type":"VEC3"
		},
		{
			"bufferView":31,
			"componentType":5126,
			"count":132,
			"type":"VEC2"
		},
		{
			"bufferView":32,
			"componentType":5126,
			"count":132,
			"type":"VEC2"
		},
		{
			"bufferView":33,
			"componentType":5126,
			"count":132,
			"type":"VEC2"
		},
		{
			"bufferView":34,
			"componentType":5126,
			"count":132,
			"type":"VEC3"
		},
		{
			"bufferView":35,
			"componentType":5123,
			"count":402,
			"type":"SCALAR"
		},
		{
			"bufferView":36,
			"componentType":5126,
			"count":786,
			"max":[
				0.005719625856727362,
				0.05216393247246742,
				0.11658532172441483
			],
			"min":[
				-0.13319925963878632,
				-0.02216941863298416,
				-0.11696081608533859
			],
			"type":"VEC3"
		},
		{
			"bufferView":37,
			"componentType":5126,
			"count":786,
			"type":"VEC2"
		},
		{
			"bufferView":38,
			"componentType":5126,
			"count":786,
			"type":"VEC2"
		},
		{
			"bufferView":39,
			"componentType":5126,
			"count":786,
			"type":"VEC2"
		},
		{
			"bufferView":40,
			"componentType":5126,
			"count":786,
			"type":"VEC3"
		},
		{
			"bufferView":41,
			"componentType":5123,
			"count":4152,
			"type":"SCALAR"
		}
	],
	"bufferViews":[
		{
			"buffer":0,
			"byteLength":56796,
			"byteOffset":0,
			"target":34962
		},
		{
			"buffer":0,
			"byteLength":37864,
			"byteOffset":56796,
			"target":34962
		},
		{
			"buffer":0,
			"byteLength":37864,
			"byteOffset":94660,
			"target":34962
		},
		{
			"buffer":0,
			"byteLength":37864,
			"byteOffset":132524,
			"target":34962
		},
		{
			"buffer":0,
			"byteLength":56796,
			"byteOffset":170388,
			"target":34962
		},
		{
			"buffer":0,
			"byteLength":53880,
			"byteOffset":227184,
			"target":34963
		},
		{
			"buffer":0,
			"byteLength":28620,
			"byteOffset":281064,
			"target":34962
		},
		{
			"buffer":0,
			"byteLength":19080,
			"byteOffset":309684,
			"target":34962
		},
		{
			"buffer":0,
			"byteLength":19080,
			"byteOffset":328764,
			"target":34962
		},
		{
			"buffer":0,
			"byteLength":19080,
			"byteOffset":347844,
			"target":34962
		},
		{
			"buffer":0,
			"byteLength":28620,
			"byteOffset":366924,
			"target":34962
		},
		{
			"buffer":0,
			"byteLength":23232,
			"byteOffset":395544,
			"target":34963
		},
		{
			"buffer":0,
			"byteLength":49968,
			"byteOffset":418776,
			"target":34962
		},
		{
			"buffer":0,
			"byteLength":33312,
			"byteOffset":468744,
			"target":34962
		},
		{
			"buffer":0,
			"byteLength":33312,
			"byteOffset":502056,
			"target":34962
		},
		{
			"buffer":0,
			"byteLength":33312,
			"byteOffset":535368,
			"target":34962
		},
		{
			"buffer":0,
			"byteLength":49968,
			"byteOffset":568680,
			"target":34962
		},
		{
			"buffer":0,
			"byteLength":49920,
			"byteOffset":618648,
			"target":34963
		},
		{
			"buffer":0,
			"byteLength":463704,
			"byteOffset":668568,
			"target":34962
		},
		{
			"buffer":0,
			"byteLength":309136,
			"byteOffset":1132272,
			"target":34962
		},
		{
			"buffer":0,
			"byteLength":309136,
			"byteOffset":1441408,
			"target":34962
		},
		{
			"buffer":0,
			"byteLength":309136,
			"byteOffset":1750544,
			"target":34962
		},
		{
			"buffer":0,
			"byteLength":463704,
			"byteOffset":2059680,
			"target":34962
		},
		{
			"buffer":0,
			"byteLength":462348,
			"byteOffset":2523384,
			"target":34963
		},
		{
			"buffer":0,
			"byteLength":1860,
			"byteOffset":2985732,
			"target":34962
		},
		{
			"buffer":0,
			"byteLength":1240,
			"byteOffset":2987592,
			"target":34962
		},
		{
			"buffer":0,
			"byteLength":1240,
			"byteOffset":2988832,
			"target":34962
		},
		{
			"buffer":0,
			"byteLength":1240,
			"byteOffset":2990072,
			"target":34962
		},
		{
			"buffer":0,
			"byteLength":1860,
			"byteOffset":2991312,
			"target":34962
		},
		{
			"buffer":0,
			"byteLength":1440,
			"byteOffset":2993172,
			"target":34963
		},
		{
			"buffer":0,
			"byteLength":1584,
			"byteOffset":2994612,
			"target":34962
		},
		{
			"buffer":0,
			"byteLength":1056,
			"byteOffset":2996196,
			"target":34962
		},
		{
			"buffer":0,
			"byteLength":1056,
			"byteOffset":2997252,
			"target":34962
		},
		{
			"buffer":0,
			"byteLength":1056,
			"byteOffset":2998308,
			"target":34962
		},
		{
			"buffer":0,
			"byteLength":1584,
			"byteOffset":2999364,
			"target":34962
		},
		{
			"buffer":0,
			"byteLength":804,
			"byteOffset":3000948,
			"target":34963
		},
		{
			"buffer":0,
			"byteLength":9432,
			"byteOffset":3001752,
			"target":34962
		},
		{
			"buffer":0,
			"byteLength":6288,
			"byteOffset":3011184,
			"target":34962
		},
		{
			"buffer":0,
			"byteLength":6288,
			"byteOffset":3017472,
			"target":34962
		},
		{
			"buffer":0,
			"byteLength":6288,
			"byteOffset":3023760,
			"target":34962
		},
		{
			"buffer":0,
			"byteLength":9432,
			"byteOffset":3030048,
			"target":34962
		},
		{
			"buffer":0,
			"byteLength":8304,
			"byteOffset":3039480,
			"target":34963
		},
		{
			"buffer":0,
			"byteLength":37941,
			"byteOffset":3047784
		}
	],
	"samplers":[
		{
			"magFilter":9729,
			"minFilter":9987
		}
	],
	"buffers":[
		{
			"byteLength":3085728,
			"uri":"data:application/octet-stream;base64,"
		}
	]
}
