{
    "asset" : {
        "generator" : "Khronos glTF Blender I/O v3.4.50",
        "version" : "2.0"
    },
    "scene" : 0,
    "scenes" : [
        {
            "name" : "Scene",
            "nodes" : [
                0,
                1,
                2,
                3,
                4
            ]
        }
    ],
    "nodes" : [
        {
            "mesh" : 0,
            "name" : "Helmet"
        },
        {
            "mesh" : 1,
            "name" : "Padding"
        },
        {
            "mesh" : 2,
            "name" : "FaceMask"
        },
        {
            "mesh" : 3,
            "name" : "Stripe1"
        },
        {
            "mesh" : 4,
            "name" : "Stripe2"
        }
    ],
    "materials" : [
        {
            "doubleSided" : true,
            "name" : "Outer_Wrap",
            "pbrMetallicRoughness" : {
                "baseColorFactor" : [
                    0.8000000715255737,
                    0.043768420815467834,
                    0.017154499888420105,
                    1
                ],
                "metallicFactor" : 0.5
            }
        },
        {
            "doubleSided" : true,
            "name" : "Logo",
            "pbrMetallicRoughness" : {
                "baseColorTexture" : {
                    "index" : 0
                },
                "metallicFactor" : 0,
                "roughnessFactor" : 0.5
            }
        },
        {
            "doubleSided" : true,
            "name" : "Padding",
            "pbrMetallicRoughness" : {
                "baseColorFactor" : [
                    0,
                    0,
                    0,
                    1
                ],
                "metallicFactor" : 0.5,
                "roughnessFactor" : 0.7300000190734863
            }
        },
        {
            "doubleSided" : true,
            "name" : "Stripe1",
            "pbrMetallicRoughness" : {
                "baseColorFactor" : [
                    0.7853677272796631,
                    0.7257896661758423,
                    0.8000000715255737,
                    1
                ],
                "metallicFactor" : 0.5
            }
        },
        {
            "doubleSided" : true,
            "name" : "Facemask",
            "pbrMetallicRoughness" : {
                "baseColorFactor" : [
                    0,
                    0,
                    0,
                    1
                ],
                "metallicFactor" : 0.5,
                "roughnessFactor" : 0.37977269291877747
            }
        },
        {
            "doubleSided" : true,
            "name" : "Stripe2 ",
            "pbrMetallicRoughness" : {
                "baseColorFactor" : [
                    0.0005844090483151376,
                    0,
                    0.24779510498046875,
                    1
                ],
                "metallicFactor" : 0.5
            }
        }
    ],
    "meshes" : [
        {
            "name" : "Helmet Padding.001",
            "primitives" : [
                {
                    "attributes" : {
                        "POSITION" : 0,
                        "TEXCOORD_0" : 1,
                        "TEXCOORD_1" : 2,
                        "TEXCOORD_2" : 3,
                        "NORMAL" : 4
                    },
                    "indices" : 5,
                    "material" : 0
                },
                {
                    "attributes" : {
                        "POSITION" : 6,
                        "TEXCOORD_0" : 7,
                        "TEXCOORD_1" : 8,
                        "TEXCOORD_2" : 9,
                        "NORMAL" : 10
                    },
                    "indices" : 11,
                    "material" : 1
                }
            ]
        },
        {
            "name" : "Helmet Padding.002",
            "primitives" : [
                {
                    "attributes" : {
                        "POSITION" : 12,
                        "TEXCOORD_0" : 13,
                        "TEXCOORD_1" : 14,
                        "TEXCOORD_2" : 15,
                        "NORMAL" : 16
                    },
                    "indices" : 17,
                    "material" : 2
                },
                {
                    "attributes" : {
                        "POSITION" : 18,
                        "TEXCOORD_0" : 19,
                        "TEXCOORD_1" : 20,
                        "TEXCOORD_2" : 21,
                        "NORMAL" : 22
                    },
                    "indices" : 23,
                    "material" : 3
                }
            ]
        },
        {
            "name" : "Helmet Padding.003",
            "primitives" : [
                {
                    "attributes" : {
                        "POSITION" : 24,
                        "TEXCOORD_0" : 25,
                        "TEXCOORD_1" : 26,
                        "TEXCOORD_2" : 27,
                        "NORMAL" : 28
                    },
                    "indices" : 29,
                    "material" : 4
                }
            ]
        },
        {
            "name" : "Helmet Padding.006",
            "primitives" : [
                {
                    "attributes" : {
                        "POSITION" : 30,
                        "TEXCOORD_0" : 31,
                        "TEXCOORD_1" : 32,
                        "TEXCOORD_2" : 33,
                        "NORMAL" : 34
                    },
                    "indices" : 35,
                    "material" : 3
                }
            ]
        },
        {
            "name" : "Helmet Padding.007",
            "primitives" : [
                {
                    "attributes" : {
                        "POSITION" : 36,
                        "TEXCOORD_0" : 37,
                        "TEXCOORD_1" : 38,
                        "TEXCOORD_2" : 39,
                        "NORMAL" : 40
                    },
                    "indices" : 41,
                    "material" : 5
                }
            ]
        }
    ],
    "textures" : [
        {
            "sampler" : 0,
            "source" : 0
        }
    ],
    "images" : [
        {
            "mimeType" : "image/jpeg",
            "name" : "Logo",
            "uri" : "Logo.jpg"
        }
    ],
    "accessors" : [
        {
            "bufferView" : 0,
            "componentType" : 5126,
            "count" : 8716,
            "max" : [
                0.10352320969104767,
                0.13654980063438416,
                0.11892670392990112
            ],
            "min" : [
                -0.1433390974998474,
                -0.10932523012161255,
                -0.11210724711418152
            ],
            "type" : "VEC3"
        },
        {
            "bufferView" : 1,
            "componentType" : 5126,
            "count" : 8716,
            "type" : "VEC2"
        },
        {
            "bufferView" : 2,
            "componentType" : 5126,
            "count" : 8716,
            "type" : "VEC2"
        },
        {
            "bufferView" : 3,
            "componentType" : 5126,
            "count" : 8716,
            "type" : "VEC2"
        },
        {
            "bufferView" : 4,
            "componentType" : 5126,
            "count" : 8716,
            "type" : "VEC3"
        },
        {
            "bufferView" : 5,
            "componentType" : 5123,
            "count" : 49836,
            "type" : "SCALAR"
        },
        {
            "bufferView" : 6,
            "componentType" : 5126,
            "count" : 140,
            "max" : [
                0.03071422129869461,
                0.132735937833786,
                0.10113593935966492
            ],
            "min" : [
                -0.09256234019994736,
                0.08115100860595703,
                -0.09622222185134888
            ],
            "type" : "VEC3"
        },
        {
            "bufferView" : 7,
            "componentType" : 5126,
            "count" : 140,
            "type" : "VEC2"
        },
        {
            "bufferView" : 8,
            "componentType" : 5126,
            "count" : 140,
            "type" : "VEC2"
        },
        {
            "bufferView" : 9,
            "componentType" : 5126,
            "count" : 140,
            "type" : "VEC2"
        },
        {
            "bufferView" : 10,
            "componentType" : 5126,
            "count" : 140,
            "type" : "VEC3"
        },
        {
            "bufferView" : 11,
            "componentType" : 5123,
            "count" : 648,
            "type" : "SCALAR"
        },
        {
            "bufferView" : 12,
            "componentType" : 5126,
            "count" : 4535,
            "max" : [
                0.0934695154428482,
                0.13454477488994598,
                0.11274885386228561
            ],
            "min" : [
                -0.13453182578086853,
                -0.10030603408813477,
                -0.10103648900985718
            ],
            "type" : "VEC3"
        },
        {
            "bufferView" : 13,
            "componentType" : 5126,
            "count" : 4535,
            "type" : "VEC2"
        },
        {
            "bufferView" : 14,
            "componentType" : 5126,
            "count" : 4535,
            "type" : "VEC2"
        },
        {
            "bufferView" : 15,
            "componentType" : 5126,
            "count" : 4535,
            "type" : "VEC2"
        },
        {
            "bufferView" : 16,
            "componentType" : 5126,
            "count" : 4535,
            "type" : "VEC3"
        },
        {
            "bufferView" : 17,
            "componentType" : 5123,
            "count" : 22512,
            "type" : "SCALAR"
        },
        {
            "bufferView" : 18,
            "componentType" : 5126,
            "count" : 4164,
            "max" : [
                0.12757717072963715,
                0.050000935792922974,
                0.11373098194599152
            ],
            "min" : [
                -0.08350487798452377,
                -0.1080252081155777,
                -0.11245913803577423
            ],
            "type" : "VEC3"
        },
        {
            "bufferView" : 19,
            "componentType" : 5126,
            "count" : 4164,
            "type" : "VEC2"
        },
        {
            "bufferView" : 20,
            "componentType" : 5126,
            "count" : 4164,
            "type" : "VEC2"
        },
        {
            "bufferView" : 21,
            "componentType" : 5126,
            "count" : 4164,
            "type" : "VEC2"
        },
        {
            "bufferView" : 22,
            "componentType" : 5126,
            "count" : 4164,
            "type" : "VEC3"
        },
        {
            "bufferView" : 23,
            "componentType" : 5123,
            "count" : 24960,
            "type" : "SCALAR"
        },
        {
            "bufferView" : 24,
            "componentType" : 5126,
            "count" : 38673,
            "max" : [
                0.1653977334499359,
                0.08365435898303986,
                0.11380741745233536
            ],
            "min" : [
                -0.07862833887338638,
                -0.13260605931282043,
                -0.1153850108385086
            ],
            "type" : "VEC3"
        },
        {
            "bufferView" : 25,
            "componentType" : 5126,
            "count" : 38673,
            "type" : "VEC2"
        },
        {
            "bufferView" : 26,
            "componentType" : 5126,
            "count" : 38673,
            "type" : "VEC2"
        },
        {
            "bufferView" : 27,
            "componentType" : 5126,
            "count" : 38673,
            "type" : "VEC2"
        },
        {
            "bufferView" : 28,
            "componentType" : 5126,
            "count" : 38673,
            "type" : "VEC3"
        },
        {
            "bufferView" : 29,
            "componentType" : 5123,
            "count" : 231174,
            "type" : "SCALAR"
        },
        {
            "bufferView" : 30,
            "componentType" : 5126,
            "count" : 310,
            "max" : [
                0.10321825742721558,
                0.14073088765144348,
                0.04523678869009018
            ],
            "min" : [
                -0.13634437322616577,
                -0.0680544525384903,
                -0.05182547867298126
            ],
            "type" : "VEC3"
        },
        {
            "bufferView" : 31,
            "componentType" : 5126,
            "count" : 310,
            "type" : "VEC2"
        },
        {
            "bufferView" : 32,
            "componentType" : 5126,
            "count" : 310,
            "type" : "VEC2"
        },
        {
            "bufferView" : 33,
            "componentType" : 5126,
            "count" : 310,
            "type" : "VEC2"
        },
        {
            "bufferView" : 34,
            "componentType" : 5126,
            "count" : 310,
            "type" : "VEC3"
        },
        {
            "bufferView" : 35,
            "componentType" : 5123,
            "count" : 1440,
            "type" : "SCALAR"
        },
        {
            "bufferView" : 36,
            "componentType" : 5126,
            "count" : 296,
            "max" : [
                0.10352320969104767,
                0.13911907374858856,
                0.05405525863170624
            ],
            "min" : [
                -0.13757385313510895,
                -0.06909216940402985,
                -0.06265080720186234
            ],
            "type" : "VEC3"
        },
        {
            "bufferView" : 37,
            "componentType" : 5126,
            "count" : 296,
            "type" : "VEC2"
        },
        {
            "bufferView" : 38,
            "componentType" : 5126,
            "count" : 296,
            "type" : "VEC2"
        },
        {
            "bufferView" : 39,
            "componentType" : 5126,
            "count" : 296,
            "type" : "VEC2"
        },
        {
            "bufferView" : 40,
            "componentType" : 5126,
            "count" : 296,
            "type" : "VEC3"
        },
        {
            "bufferView" : 41,
            "componentType" : 5123,
            "count" : 990,
            "type" : "SCALAR"
        }
    ],
    "bufferViews" : [
        {
            "buffer" : 0,
            "byteLength" : 104592,
            "byteOffset" : 0,
            "target" : 34962
        },
        {
            "buffer" : 0,
            "byteLength" : 69728,
            "byteOffset" : 104592,
            "target" : 34962
        },
        {
            "buffer" : 0,
            "byteLength" : 69728,
            "byteOffset" : 174320,
            "target" : 34962
        },
        {
            "buffer" : 0,
            "byteLength" : 69728,
            "byteOffset" : 244048,
            "target" : 34962
        },
        {
            "buffer" : 0,
            "byteLength" : 104592,
            "byteOffset" : 313776,
            "target" : 34962
        },
        {
            "buffer" : 0,
            "byteLength" : 99672,
            "byteOffset" : 418368,
            "target" : 34963
        },
        {
            "buffer" : 0,
            "byteLength" : 1680,
            "byteOffset" : 518040,
            "target" : 34962
        },
        {
            "buffer" : 0,
            "byteLength" : 1120,
            "byteOffset" : 519720,
            "target" : 34962
        },
        {
            "buffer" : 0,
            "byteLength" : 1120,
            "byteOffset" : 520840,
            "target" : 34962
        },
        {
            "buffer" : 0,
            "byteLength" : 1120,
            "byteOffset" : 521960,
            "target" : 34962
        },
        {
            "buffer" : 0,
            "byteLength" : 1680,
            "byteOffset" : 523080,
            "target" : 34962
        },
        {
            "buffer" : 0,
            "byteLength" : 1296,
            "byteOffset" : 524760,
            "target" : 34963
        },
        {
            "buffer" : 0,
            "byteLength" : 54420,
            "byteOffset" : 526056,
            "target" : 34962
        },
        {
            "buffer" : 0,
            "byteLength" : 36280,
            "byteOffset" : 580476,
            "target" : 34962
        },
        {
            "buffer" : 0,
            "byteLength" : 36280,
            "byteOffset" : 616756,
            "target" : 34962
        },
        {
            "buffer" : 0,
            "byteLength" : 36280,
            "byteOffset" : 653036,
            "target" : 34962
        },
        {
            "buffer" : 0,
            "byteLength" : 54420,
            "byteOffset" : 689316,
            "target" : 34962
        },
        {
            "buffer" : 0,
            "byteLength" : 45024,
            "byteOffset" : 743736,
            "target" : 34963
        },
        {
            "buffer" : 0,
            "byteLength" : 49968,
            "byteOffset" : 788760,
            "target" : 34962
        },
        {
            "buffer" : 0,
            "byteLength" : 33312,
            "byteOffset" : 838728,
            "target" : 34962
        },
        {
            "buffer" : 0,
            "byteLength" : 33312,
            "byteOffset" : 872040,
            "target" : 34962
        },
        {
            "buffer" : 0,
            "byteLength" : 33312,
            "byteOffset" : 905352,
            "target" : 34962
        },
        {
            "buffer" : 0,
            "byteLength" : 49968,
            "byteOffset" : 938664,
            "target" : 34962
        },
        {
            "buffer" : 0,
            "byteLength" : 49920,
            "byteOffset" : 988632,
            "target" : 34963
        },
        {
            "buffer" : 0,
            "byteLength" : 464076,
            "byteOffset" : 1038552,
            "target" : 34962
        },
        {
            "buffer" : 0,
            "byteLength" : 309384,
            "byteOffset" : 1502628,
            "target" : 34962
        },
        {
            "buffer" : 0,
            "byteLength" : 309384,
            "byteOffset" : 1812012,
            "target" : 34962
        },
        {
            "buffer" : 0,
            "byteLength" : 309384,
            "byteOffset" : 2121396,
            "target" : 34962
        },
        {
            "buffer" : 0,
            "byteLength" : 464076,
            "byteOffset" : 2430780,
            "target" : 34962
        },
        {
            "buffer" : 0,
            "byteLength" : 462348,
            "byteOffset" : 2894856,
            "target" : 34963
        },
        {
            "buffer" : 0,
            "byteLength" : 3720,
            "byteOffset" : 3357204,
            "target" : 34962
        },
        {
            "buffer" : 0,
            "byteLength" : 2480,
            "byteOffset" : 3360924,
            "target" : 34962
        },
        {
            "buffer" : 0,
            "byteLength" : 2480,
            "byteOffset" : 3363404,
            "target" : 34962
        },
        {
            "buffer" : 0,
            "byteLength" : 2480,
            "byteOffset" : 3365884,
            "target" : 34962
        },
        {
            "buffer" : 0,
            "byteLength" : 3720,
            "byteOffset" : 3368364,
            "target" : 34962
        },
        {
            "buffer" : 0,
            "byteLength" : 2880,
            "byteOffset" : 3372084,
            "target" : 34963
        },
        {
            "buffer" : 0,
            "byteLength" : 3552,
            "byteOffset" : 3374964,
            "target" : 34962
        },
        {
            "buffer" : 0,
            "byteLength" : 2368,
            "byteOffset" : 3378516,
            "target" : 34962
        },
        {
            "buffer" : 0,
            "byteLength" : 2368,
            "byteOffset" : 3380884,
            "target" : 34962
        },
        {
            "buffer" : 0,
            "byteLength" : 2368,
            "byteOffset" : 3383252,
            "target" : 34962
        },
        {
            "buffer" : 0,
            "byteLength" : 3552,
            "byteOffset" : 3385620,
            "target" : 34962
        },
        {
            "buffer" : 0,
            "byteLength" : 1980,
            "byteOffset" : 3389172,
            "target" : 34963
        }
    ],
    "samplers" : [
        {
            "magFilter" : 9729,
            "minFilter" : 9987
        }
    ],
    "buffers" : [
        {
            "byteLength" : 3391152,
            "uri" : "Helmet_NewPad-Separated.bin"
        }
    ]
}
